<svg width="80" height="49" viewBox="0 0 80 49" fill="none" xmlns="http://www.w3.org/2000/svg">
<path d="M24.0791 48.8769L33.0638 36.5139H45.1393H48.7332C49.6436 36.5139 50.5301 36.5139 51.3926 36.5139C52.2552 36.5139 53.0219 36.5618 53.6927 36.6577C53.0219 35.7951 52.2312 34.717 51.3208 33.4232C50.4582 32.1294 49.6196 30.8835 48.805 29.6855L40.1797 16.9632L17.6101 48.8769H0L30.8356 5.39084C31.8419 4.0012 33.1117 2.75532 34.6451 1.65319C36.1785 0.551063 38.1192 0 40.4672 0C42.7673 0 44.6361 0.527101 46.0737 1.58131C47.5592 2.5876 48.853 3.85744 49.9551 5.39084L80 48.8769H24.0791Z" fill="#DCC384"/>
</svg>
