<svg width="30" height="30" viewBox="0 0 45 45" fill="none" xmlns="http://www.w3.org/2000/svg">
<path d="M37.4619 2.30615H6.61093C4.18692 2.30615 2.20364 4.28943 2.20364 6.71344V37.5644C2.20364 39.9907 4.18692 41.9717 6.61093 41.9717H37.4619C39.8859 41.9717 41.8692 39.9907 41.8692 37.5644V6.71344C41.8692 4.28943 39.8859 2.30615 37.4619 2.30615ZM22.0012 34.3097C25.238 34.3091 28.3421 33.0228 30.6307 30.7338C32.9193 28.4448 34.2049 25.3405 34.2049 22.1037C34.2049 21.3588 34.1102 20.6405 33.978 19.9353H37.4619V35.8368C37.4619 36.037 37.4224 36.2353 37.3456 36.4202C37.2687 36.6051 37.1561 36.773 37.0142 36.9143C36.8724 37.0556 36.704 37.1674 36.5187 37.2435C36.3335 37.3195 36.135 37.3582 35.9348 37.3573H8.13805C7.93782 37.3582 7.73939 37.3195 7.55415 37.2435C7.36891 37.1674 7.20051 37.0556 7.05861 36.9143C6.91672 36.773 6.80413 36.6051 6.7273 36.4202C6.65047 36.2353 6.61093 36.037 6.61093 35.8368V19.9353H10.0244C9.88995 20.6405 9.79519 21.3588 9.79519 22.1037C9.79578 25.3407 11.0819 28.445 13.3709 30.734C15.6598 33.0229 18.7641 34.3091 22.0012 34.3097ZM14.3744 22.1037C14.3744 21.1021 14.5716 20.1104 14.9549 19.185C15.3382 18.2597 15.9 17.4189 16.6082 16.7107C17.3164 16.0025 18.1572 15.4407 19.0825 15.0574C20.0078 14.6741 20.9996 14.4769 22.0012 14.4769C23.0027 14.4769 23.9945 14.6741 24.9198 15.0574C25.8451 15.4407 26.6859 16.0025 27.3941 16.7107C28.1024 17.4189 28.6641 18.2597 29.0474 19.185C29.4307 20.1104 29.628 21.1021 29.628 22.1037C29.628 24.1264 28.8244 26.0663 27.3941 27.4966C25.9638 28.927 24.0239 29.7305 22.0012 29.7305C19.9784 29.7305 18.0385 28.927 16.6082 27.4966C15.1779 26.0663 14.3744 24.1264 14.3744 22.1037ZM35.9348 13.3244H32.3759C31.9718 13.3232 31.5847 13.1622 31.2989 12.8764C31.0132 12.5907 30.8522 12.2035 30.851 11.7994V8.23616C30.851 7.39436 31.5341 6.71344 32.3737 6.71344H35.9326C36.7788 6.71344 37.4619 7.39436 37.4619 8.23616V11.7972C37.4619 12.6368 36.7788 13.3244 35.9348 13.3244Z" fill="white"/>
</svg>
