<svg width="30" height="30" viewBox="0 0 45 45" fill="none" xmlns="http://www.w3.org/2000/svg">
<path d="M31.9761 15.5654C30.6639 14.7395 29.5826 13.5942 28.8333 12.2369C28.0839 10.8795 27.691 9.35421 27.6912 7.80371H4.94475C4.72505 7.8071 4.50681 7.84004 4.2959 7.90165L21.9863 25.5186L31.9761 15.5654Z" fill="white"/>
<path d="M36.8731 16.9856C36.0447 16.9784 35.221 16.859 34.4246 16.6306L23.7615 27.257C23.3027 27.7131 22.6821 27.969 22.0353 27.969C21.3884 27.969 20.7678 27.7131 20.3091 27.257L2.59424 9.64014C2.53993 9.83974 2.51114 10.0454 2.50854 10.2523V34.7372C2.50854 35.3866 2.76651 36.0093 3.22569 36.4685C3.68487 36.9277 4.30766 37.1857 4.95704 37.1857H39.2359C39.8853 37.1857 40.5081 36.9277 40.9673 36.4685C41.4265 36.0093 41.6844 35.3866 41.6844 34.7372V15.6267C40.2385 16.519 38.5722 16.9896 36.8731 16.9856ZM6.63425 34.7372H4.93255V32.9865L13.8328 24.1597L15.559 25.8859L6.63425 34.7372ZM39.2114 34.7372H37.4975L28.5727 25.8859L30.2989 24.1597L39.1992 32.9865L39.2114 34.7372Z" fill="white"/>
<path d="M36.8731 13.9256C40.2537 13.9256 42.9943 11.185 42.9943 7.80434C42.9943 4.42367 40.2537 1.68311 36.8731 1.68311C33.4924 1.68311 30.7518 4.42367 30.7518 7.80434C30.7518 11.185 33.4924 13.9256 36.8731 13.9256Z" fill="white"/>
</svg>
