<svg width="40" height="39" viewBox="0 0 40 39" fill="none" xmlns="http://www.w3.org/2000/svg">
<path d="M4.59816 1.61196C4.09405 1.15813 3.41887 0.907015 2.71804 0.912692C2.01721 0.918368 1.34682 1.18039 0.851239 1.64231C0.355661 2.10424 0.0745534 2.72911 0.0684634 3.38235C0.0623734 4.03558 0.331787 4.66491 0.818678 5.1348L16.2547 19.5226L0.816005 33.9104C0.560716 34.1402 0.357088 34.4152 0.217003 34.7191C0.0769192 35.0231 0.00318496 35.35 0.000100921 35.6808C-0.00298312 36.0116 0.0646453 36.3397 0.199041 36.6459C0.333437 36.952 0.531909 37.2302 0.782875 37.4641C1.03384 37.6981 1.33228 37.883 1.66077 38.0083C1.98926 38.1336 2.34122 38.1966 2.69613 38.1938C3.05103 38.1909 3.40177 38.1222 3.72788 37.9916C4.05398 37.861 4.34892 37.6712 4.59549 37.4333L20.0342 23.0454L35.4702 37.4333C35.9743 37.8871 36.6495 38.1382 37.3503 38.1325C38.0512 38.1268 38.7215 37.8648 39.2171 37.4029C39.7127 36.941 39.9938 36.3161 39.9999 35.6629C40.006 35.0096 39.7366 34.3803 39.2497 33.9104L23.8137 19.5226L39.2497 5.1348C39.7366 4.66491 40.006 4.03558 39.9999 3.38235C39.9938 2.72911 39.7127 2.10424 39.2171 1.64231C38.7215 1.18039 38.0512 0.918368 37.3503 0.912692C36.6495 0.907015 35.9743 1.15813 35.4702 1.61196L20.0342 15.9998L4.59816 1.60947V1.61196Z" fill="#fff"/>
</svg>